<?xml version="1.0" encoding="UTF-8" standalone="no"?>
<!DOCTYPE svg PUBLIC "-//W3C//DTD SVG 1.1//EN" "http://www.w3.org/Graphics/SVG/1.1/DTD/svg11.dtd">
<svg viewBox="888 8 260 260" width="260.0" height="260.0" xmlns="http://www.w3.org/2000/svg" version="1.1" style="background: gray">
<path d="M 1015.00 9.99 C 1022.13 10.12 1028.64 9.35 1035.63 11.17 C 1044.98 12.76 1053.95 14.35 1062.70 18.23 C 1076.79 23.72 1090.11 30.43 1101.60 40.40 C 1108.85 46.91 1115.68 53.78 1121.09 61.94 C 1131.18 75.38 1137.88 90.82 1142.04 107.05 C 1143.52 112.53 1144.15 118.14 1145.26 123.69 C 1146.45 129.53 1145.91 135.99 1146.03 142.00 C 1145.99 146.64 1146.41 151.60 1145.08 156.05 C 1141.32 168.97 1139.63 181.36 1133.76 193.73 C 1125.62 212.06 1112.32 227.29 1096.91 239.90 C 1080.15 252.58 1059.99 260.94 1039.34 264.56 C 1030.65 267.03 1021.33 265.67 1012.00 266.04 C 1006.13 266.32 1000.55 265.45 994.82 264.32 C 986.02 263.17 978.54 259.70 970.32 256.72 C 957.66 252.48 945.78 244.86 935.31 236.68 C 927.55 229.57 919.52 221.78 914.48 212.49 C 907.84 201.66 900.85 190.14 897.04 177.94 C 895.26 172.52 893.23 167.40 892.32 161.74 C 891.51 155.72 889.71 150.16 889.96 144.02 C 890.24 134.83 889.06 126.62 891.53 117.71 C 895.24 97.14 902.58 76.33 916.00 60.01 C 920.22 53.92 925.49 48.91 930.72 43.72 C 935.84 38.58 942.46 34.57 948.47 30.48 C 959.35 23.32 971.20 18.83 983.35 14.35 C 987.84 12.79 992.41 12.02 997.02 10.94 C 1002.73 9.47 1009.04 10.08 1015.00 9.99 Z" fill="#020202" />
<path d="M 1018.24 13.21 C 1020.15 12.95 1022.07 12.92 1023.99 12.93 C 1038.76 13.34 1053.35 16.12 1066.92 22.08 C 1076.53 26.23 1085.88 31.60 1094.22 37.94 C 1094.05 38.80 1093.87 39.65 1093.69 40.51 C 1087.53 42.22 1081.35 43.87 1075.22 45.68 C 1069.42 40.31 1064.27 34.85 1057.60 30.39 C 1052.37 26.81 1046.84 23.77 1041.33 20.64 C 1038.65 19.12 1035.73 18.33 1032.73 17.72 C 1037.21 21.10 1042.18 23.35 1047.11 25.94 C 1054.57 29.81 1060.89 36.16 1067.20 41.78 C 1068.42 43.18 1070.57 44.52 1069.88 46.64 C 1062.77 49.12 1054.68 49.53 1047.28 50.73 C 1053.06 52.15 1059.85 50.61 1065.62 49.55 C 1068.09 49.18 1071.12 47.81 1073.57 48.35 C 1076.02 50.11 1077.90 52.89 1079.84 55.18 C 1083.09 59.04 1085.89 63.22 1088.44 67.56 C 1091.05 71.68 1092.39 75.84 1096.57 78.75 C 1094.12 72.03 1090.11 65.76 1086.19 59.81 C 1083.16 55.07 1079.07 52.24 1077.49 46.59 C 1084.45 45.10 1091.13 42.97 1097.87 40.71 C 1108.76 50.84 1120.20 61.57 1126.00 75.59 C 1127.64 78.99 1130.19 81.84 1131.69 85.34 C 1134.99 92.79 1137.58 100.62 1139.53 108.54 C 1141.53 116.11 1142.11 124.23 1142.87 132.02 C 1142.99 138.01 1142.44 144.05 1142.14 150.04 C 1141.56 163.03 1137.67 174.99 1133.00 187.01 C 1131.10 191.89 1128.86 196.62 1126.08 201.07 C 1114.94 219.62 1099.85 235.52 1081.04 246.39 C 1077.55 244.36 1073.95 242.54 1070.48 240.50 C 1069.21 239.48 1067.66 239.11 1068.07 237.15 C 1070.72 232.26 1075.59 228.42 1079.13 224.14 C 1082.49 220.08 1086.79 215.74 1088.41 210.70 C 1084.18 214.17 1081.61 218.56 1077.87 222.87 C 1073.69 228.17 1068.84 232.73 1063.95 237.36 C 1058.01 235.17 1052.22 233.05 1045.91 232.11 C 1042.56 231.70 1039.48 230.51 1036.38 229.23 C 1038.47 220.71 1041.51 212.00 1041.93 203.21 C 1039.68 206.07 1039.58 209.19 1038.64 212.59 C 1037.45 218.49 1035.66 224.22 1033.82 229.94 C 1028.17 230.08 1022.18 229.53 1016.64 230.68 C 1010.23 232.19 1003.78 232.97 997.57 235.27 C 999.54 243.21 1005.04 249.20 1007.13 257.06 C 1002.03 251.37 998.72 243.67 995.59 236.77 C 989.41 237.53 983.62 239.26 978.35 242.63 C 981.19 245.82 984.11 248.89 987.60 251.40 C 990.73 253.64 993.64 256.08 996.09 259.07 C 989.03 255.64 982.84 251.28 977.25 245.78 C 974.10 242.09 967.83 244.59 963.92 245.65 C 966.46 244.19 969.05 242.84 971.62 241.45 C 968.75 236.17 964.05 233.20 960.45 228.56 C 957.24 224.45 954.08 220.18 951.64 215.56 C 956.23 218.87 958.86 223.26 962.54 227.45 C 966.39 232.35 971.52 235.77 975.96 240.22 C 982.06 237.93 988.18 236.48 993.89 233.21 C 992.67 229.33 991.60 225.40 990.40 221.51 C 989.04 217.57 987.47 213.80 986.96 209.62 C 989.97 213.31 991.25 218.78 992.72 223.24 C 993.73 226.60 995.28 229.70 996.87 232.82 C 1004.53 230.98 1012.36 229.97 1019.98 228.03 C 1020.04 218.69 1019.96 209.36 1020.03 200.03 C 1033.03 200.16 1046.22 199.44 1059.15 200.79 C 1066.40 201.39 1072.84 200.25 1079.72 202.15 C 1085.74 203.29 1091.75 204.67 1097.85 205.24 C 1104.30 205.94 1110.00 208.80 1116.52 209.07 C 1111.22 204.33 1102.36 203.59 1095.67 201.60 C 1097.38 194.15 1101.19 187.94 1103.74 180.73 C 1107.99 170.17 1109.12 159.16 1109.15 147.87 C 1118.77 146.22 1130.86 146.80 1139.67 142.24 C 1131.11 141.12 1123.46 144.43 1114.95 144.08 C 1113.16 143.89 1111.44 144.31 1110.25 142.66 C 1109.69 138.26 1110.23 133.78 1109.63 129.36 C 1108.96 124.29 1108.26 119.23 1107.76 114.15 C 1106.41 105.29 1103.64 96.42 1100.75 87.99 C 1107.39 85.67 1114.16 85.18 1120.26 82.25 C 1122.21 81.34 1123.44 79.85 1124.90 78.33 C 1120.58 79.48 1116.45 81.12 1112.08 82.09 C 1101.22 84.58 1091.20 87.99 1080.00 89.01 C 1074.27 89.50 1068.79 90.95 1063.01 91.00 C 1058.65 91.05 1054.36 91.62 1050.04 92.07 C 1039.50 93.46 1028.59 92.92 1017.96 92.94 C 1017.50 81.63 1017.91 70.28 1017.82 58.97 C 1017.65 57.15 1017.95 54.72 1015.70 54.15 C 1010.99 52.83 1005.78 52.85 1000.93 52.94 C 998.60 53.08 995.74 53.08 994.44 55.40 C 991.74 60.19 989.79 65.42 987.31 70.34 C 984.39 76.00 983.73 82.10 980.13 87.46 C 979.57 75.57 987.96 64.18 991.40 53.27 C 980.26 50.52 969.56 50.27 958.26 48.90 C 949.46 59.93 942.76 72.15 936.84 84.91 C 936.81 75.60 941.97 69.81 945.97 61.97 C 948.53 56.99 951.99 52.71 955.56 48.44 C 951.47 46.00 946.72 45.78 942.67 43.22 C 947.94 43.49 953.42 44.57 958.68 44.18 C 961.41 43.51 963.63 40.49 965.64 38.64 C 968.95 35.19 972.58 32.15 976.73 29.77 C 983.76 25.70 990.75 20.94 998.32 17.94 C 994.47 22.70 989.42 25.07 984.26 28.22 C 977.07 32.07 970.60 37.14 965.25 43.30 C 964.29 44.40 963.95 45.32 963.82 46.77 C 965.11 47.67 966.46 47.87 967.99 47.96 C 976.31 48.32 984.61 49.31 992.90 50.16 C 995.16 44.70 997.03 39.32 1000.40 34.40 C 1004.15 28.98 1006.82 23.33 1011.19 18.70 C 1010.45 23.89 1007.68 27.69 1005.05 32.06 C 1001.44 37.75 998.21 43.54 996.56 50.13 C 1003.36 51.33 1010.30 51.26 1017.15 52.13 C 1018.60 39.25 1017.15 26.14 1018.24 13.21 Z" fill="#fffefe" />
<path d="M 1023.78 21.77 C 1027.81 26.11 1029.60 31.30 1032.43 36.58 C 1034.85 41.11 1036.37 45.94 1038.01 50.78 C 1041.32 50.95 1044.62 51.17 1047.89 51.77 C 1044.73 52.70 1041.51 53.21 1038.29 53.82 C 1040.28 60.42 1041.66 67.23 1043.13 73.97 C 1043.92 77.48 1043.71 80.05 1042.68 83.46 C 1040.80 76.35 1040.06 69.04 1038.15 61.94 C 1037.40 59.13 1036.77 55.42 1034.66 53.29 C 1029.83 52.85 1025.15 53.88 1020.31 52.63 C 1025.24 52.15 1030.17 51.99 1035.08 51.31 C 1032.95 44.28 1030.78 37.08 1027.44 30.52 C 1026.01 27.67 1024.55 24.89 1023.78 21.77 Z" fill="#020202" />
<path d="M 904.50 84.19 C 913.48 85.15 922.59 86.16 931.30 88.64 C 941.74 91.23 952.19 93.22 962.99 93.15 C 970.63 94.04 978.25 93.95 985.91 94.39 C 995.84 95.48 1005.91 94.82 1015.98 95.03 C 1015.80 102.36 1016.38 109.74 1015.93 117.05 C 1015.14 120.90 1014.10 124.16 1014.58 128.18 C 1011.20 125.60 1007.72 123.22 1003.82 121.47 C 1005.17 125.72 1007.42 129.26 1010.16 132.74 C 1005.87 131.40 1001.85 129.79 997.46 128.87 C 999.42 131.55 1001.54 133.92 1004.57 135.42 C 1008.46 137.44 1012.67 137.63 1016.94 138.18 C 1016.99 144.96 1017.21 151.58 1016.73 158.35 C 1013.90 154.68 1011.48 150.74 1009.14 146.74 C 1005.89 147.60 1003.06 147.05 999.89 146.13 C 996.49 145.08 993.10 145.06 989.58 145.27 C 993.21 147.77 996.74 150.20 999.52 153.69 C 995.88 155.31 992.18 156.74 988.67 158.66 C 997.28 159.02 1005.63 159.47 1013.45 163.57 C 1015.37 164.70 1017.99 166.56 1017.92 169.05 C 1018.25 173.77 1017.95 178.54 1018.00 183.28 C 1016.06 183.70 1013.98 184.49 1012.01 183.95 C 1005.77 182.47 1000.64 178.98 994.43 176.59 C 991.41 175.21 986.93 173.86 985.49 170.58 C 983.61 166.31 983.07 161.72 980.34 157.62 C 977.99 154.03 974.14 152.42 971.28 149.48 C 970.94 148.52 970.84 147.48 970.98 146.35 C 974.43 143.09 978.56 141.31 980.65 136.67 C 982.79 131.80 982.00 125.53 980.43 120.59 C 978.89 115.21 974.22 110.59 968.80 109.19 C 965.42 108.65 961.35 108.61 958.26 110.28 C 953.66 112.72 949.99 116.93 949.18 122.20 C 948.56 126.65 949.12 131.30 950.44 135.57 C 951.98 139.85 955.16 142.20 958.35 145.17 C 956.58 148.00 954.94 149.48 952.08 151.17 C 948.81 152.99 947.18 156.78 946.34 160.25 C 944.83 169.35 944.62 178.70 945.24 187.89 C 945.84 192.40 946.17 196.83 945.72 201.38 C 943.76 198.42 942.24 195.27 941.02 191.93 C 937.58 182.67 933.93 173.63 931.85 163.93 C 930.30 158.93 930.06 153.61 928.36 148.69 C 918.94 146.53 909.16 147.64 899.61 144.16 C 906.81 143.68 913.82 145.48 921.05 145.11 C 923.05 144.88 926.53 145.59 927.77 143.66 C 928.35 137.73 927.71 131.77 928.67 125.84 C 928.95 118.74 931.16 112.14 932.20 105.17 C 932.92 100.49 934.33 96.00 935.31 91.39 C 929.59 90.93 924.08 89.54 918.46 88.47 C 913.53 87.39 908.89 86.93 904.50 84.19 Z" fill="#fffefe" />
<path d="M 1075.54 108.49 C 1080.22 110.13 1084.42 114.43 1085.74 119.24 C 1086.50 123.66 1086.05 128.43 1084.65 132.69 C 1083.21 136.35 1079.63 139.43 1076.77 142.01 C 1076.87 143.29 1076.96 144.57 1077.06 145.85 C 1080.39 148.08 1084.31 150.00 1087.11 152.89 C 1088.98 155.76 1089.62 159.63 1090.04 162.98 C 1090.78 169.87 1092.02 176.23 1092.02 182.99 C 1092.06 189.02 1091.98 195.04 1091.96 201.07 C 1082.83 201.37 1074.10 198.70 1064.99 198.98 C 1059.75 199.09 1054.68 198.20 1049.51 197.59 C 1049.10 194.83 1048.78 192.06 1048.38 189.29 C 1044.01 189.88 1039.64 190.28 1035.33 191.27 C 1029.68 192.61 1024.53 191.25 1018.80 191.73 C 1018.73 189.66 1018.61 187.46 1018.92 185.41 C 1022.20 184.43 1025.63 183.95 1028.93 182.98 C 1037.10 181.02 1045.01 176.91 1051.06 171.06 C 1053.57 166.93 1053.90 161.57 1056.29 157.27 C 1058.42 153.15 1061.96 151.11 1065.15 148.02 C 1066.36 147.03 1066.26 144.85 1065.60 143.58 C 1063.00 140.63 1059.34 139.43 1057.20 135.83 C 1055.32 132.57 1053.39 128.27 1054.38 124.45 C 1055.33 119.99 1056.76 114.44 1060.26 111.27 C 1064.41 107.49 1070.34 107.28 1075.54 108.49 Z" fill="#fffefe" />
<path d="M 1020.46 121.11 C 1019.82 123.58 1019.24 126.01 1019.14 128.57 C 1022.55 125.88 1025.79 123.15 1029.85 121.44 C 1028.64 126.82 1025.29 130.31 1021.81 134.30 C 1027.18 133.38 1031.66 130.78 1036.72 128.97 C 1032.75 135.51 1024.43 138.24 1017.12 138.14 C 1016.99 132.92 1016.76 127.61 1017.26 122.41 C 1018.32 121.95 1019.38 121.52 1020.46 121.11 Z" fill="#fffefe" />
<path d="M 894.26 142.25 C 894.77 142.77 894.77 142.77 894.26 142.25 Z" fill="#fffefe" />
<path d="M 1044.43 145.14 C 1041.45 147.85 1038.30 150.36 1035.36 153.11 C 1038.96 154.16 1042.44 155.50 1045.65 157.47 C 1040.96 158.00 1036.03 157.50 1031.43 158.48 C 1026.65 160.12 1022.32 163.20 1017.70 165.29 C 1018.44 159.52 1021.38 155.13 1024.37 150.31 C 1025.15 149.26 1025.98 147.61 1027.34 147.29 C 1032.96 145.70 1038.55 144.64 1044.43 145.14 Z" fill="#fffefe" />
<path d="M 988.24 191.98 C 993.24 192.03 997.90 193.96 1002.95 194.07 C 1008.10 194.43 1012.83 192.80 1017.91 192.73 C 1018.01 194.56 1018.09 196.40 1018.17 198.23 C 1011.37 199.55 1004.55 198.51 997.77 199.66 C 989.26 200.86 980.86 202.57 972.29 203.37 C 963.12 204.78 953.94 206.09 944.80 207.71 C 939.12 208.61 933.43 209.95 928.07 212.07 C 925.63 213.03 923.24 213.65 920.63 214.04 C 923.20 211.84 926.00 210.22 929.26 209.26 C 940.14 205.97 951.38 203.80 962.67 202.54 C 970.66 201.21 978.63 200.63 986.53 198.67 C 986.98 196.39 987.32 194.12 988.24 191.98 Z" fill="#fffefe" />
<path d="M 986.09 207.16 L 986.91 207.16 L 987.32 207.88 L 986.91 208.59 L 986.09 208.59 L 985.68 207.88 L 986.09 207.16 Z" fill="#fffefe" />
<path d="M 950.25 214.25 C 950.77 214.77 950.77 214.77 950.25 214.25 Z" fill="#fffefe" />
<path d="M 1020.34 231.34 C 1024.82 230.46 1028.98 231.17 1033.37 232.11 C 1031.77 237.04 1029.80 241.85 1027.38 246.44 C 1025.88 249.28 1024.54 252.16 1023.69 255.28 C 1025.73 253.33 1027.55 251.28 1028.64 248.64 C 1031.11 242.99 1033.16 237.23 1036.04 231.76 C 1044.03 233.49 1052.83 234.40 1060.25 237.91 C 1061.66 238.28 1060.76 240.26 1059.86 240.79 C 1056.20 243.77 1052.04 246.53 1047.96 248.92 C 1043.38 251.61 1038.40 252.45 1035.37 257.01 C 1045.54 254.37 1053.99 246.21 1062.90 240.86 C 1064.21 240.13 1065.06 239.77 1066.52 240.40 C 1070.82 242.04 1074.81 244.68 1078.65 247.18 C 1072.69 251.42 1066.03 253.93 1059.14 256.20 C 1051.70 258.99 1044.04 260.73 1036.24 262.24 C 1030.79 263.35 1025.57 263.00 1020.03 262.98 C 1020.22 252.47 1019.51 241.80 1020.34 231.34 Z" fill="#fffefe" />
</svg>