<?xml version="1.0" encoding="UTF-8" standalone="no"?>
<!DOCTYPE svg PUBLIC "-//W3C//DTD SVG 1.1//EN" "http://www.w3.org/Graphics/SVG/1.1/DTD/svg11.dtd">
<svg viewBox="20 8 1128 260" width="1128.0" height="260.0" xmlns="http://www.w3.org/2000/svg" version="1.1">
<path d="M 24.44 41.38 C 27.63 40.12 31.62 40.53 35.01 40.45 C 42.91 40.63 51.61 39.99 59.31 41.76 C 66.08 43.30 72.25 47.07 75.96 53.04 C 80.40 60.11 80.83 69.63 78.60 77.51 C 76.51 85.14 71.08 91.62 63.83 94.85 C 55.05 99.16 44.62 98.38 35.07 98.41 C 34.69 108.01 34.90 117.44 34.95 127.05 C 34.92 129.10 34.95 131.38 34.32 133.35 C 31.01 135.20 26.13 134.09 22.53 133.65 C 22.23 105.42 22.57 77.17 22.36 48.94 C 22.48 46.66 22.15 42.73 24.44 41.38 Z M 34.97 50.86 C 41.54 50.84 48.79 50.17 55.18 51.84 C 60.61 53.28 64.65 57.49 66.07 62.89 C 68.12 70.71 66.17 80.39 58.98 84.98 C 52.34 89.38 42.59 88.13 34.97 88.14 C 34.81 75.73 34.80 63.28 34.97 50.86 Z" fill="#020202" fill-rule="evenodd" />
<path d="M 101.30 41.14 C 105.31 40.04 109.86 40.56 114.00 40.47 C 124.65 40.68 136.14 39.43 145.56 45.43 C 156.03 51.69 158.34 66.64 152.94 76.93 C 149.69 82.93 144.21 85.75 138.31 88.58 C 142.24 91.44 145.71 94.66 147.95 99.05 C 151.69 106.25 154.26 114.07 157.54 121.49 C 159.33 125.48 160.65 129.50 161.28 133.83 C 157.18 134.34 153.21 134.38 149.09 134.06 C 144.78 124.67 141.68 114.90 137.52 105.47 C 135.36 100.78 132.74 96.38 127.92 94.05 C 123.13 91.67 116.56 92.38 111.32 92.28 C 111.07 106.14 111.78 120.07 110.92 133.91 C 106.93 134.34 103.19 134.32 99.20 133.86 C 98.68 125.90 98.93 117.97 98.90 110.00 C 98.88 89.30 98.93 68.63 98.85 47.93 C 99.01 45.88 98.75 41.84 101.30 41.14 Z M 111.46 51.21 C 116.56 50.35 121.92 50.69 127.06 50.98 C 131.98 51.38 137.00 52.76 139.96 57.03 C 144.45 64.03 143.28 75.28 135.46 79.48 C 128.70 83.34 118.82 82.18 111.29 82.05 C 111.47 71.79 111.00 61.46 111.46 51.21 Z" fill="#020202" fill-rule="evenodd" />
<path d="M 208.44 39.63 C 219.23 38.59 230.20 39.40 239.48 45.51 C 247.87 50.67 252.98 60.90 254.68 70.35 C 257.08 82.98 256.72 96.51 252.79 108.81 C 249.85 117.22 244.57 125.23 236.60 129.61 C 227.55 135.07 217.27 135.88 206.95 135.02 C 198.82 134.33 190.55 131.05 184.56 125.44 C 179.09 119.87 175.62 112.45 174.17 104.82 C 171.92 93.57 171.84 81.67 174.44 70.46 C 176.17 62.75 180.01 55.23 185.65 49.65 C 191.89 43.90 199.99 40.37 208.44 39.63 Z M 208.30 50.31 C 217.04 49.00 226.21 49.85 233.08 55.92 C 239.75 61.70 242.09 71.56 242.77 80.00 C 243.48 89.72 243.05 100.83 238.79 109.78 C 235.60 116.77 229.28 122.14 221.72 123.76 C 216.94 124.73 211.95 124.72 207.14 123.95 C 200.52 122.87 194.32 118.89 191.03 112.97 C 186.71 105.60 185.86 96.37 185.69 88.00 C 185.66 79.65 186.60 70.24 190.84 62.87 C 194.42 56.37 200.95 51.52 208.30 50.31 Z" fill="#020202" fill-rule="evenodd"/>
<path d="M 296.22 40.79 C 296.60 60.18 296.27 79.60 296.38 99.00 C 296.31 105.75 296.79 112.90 295.60 119.55 C 294.72 124.29 292.69 128.80 288.66 131.66 C 283.53 135.41 276.29 135.83 270.25 134.72 C 267.76 134.17 264.47 133.28 262.84 131.18 C 261.09 128.21 262.23 123.81 262.79 120.61 C 267.00 122.18 271.39 124.57 275.99 124.23 C 278.43 124.08 280.71 123.13 281.94 120.91 C 283.98 117.23 283.92 112.12 284.01 108.01 C 283.89 87.66 284.05 67.30 283.91 46.95 C 283.93 45.09 283.95 43.16 284.26 41.33 C 287.49 39.11 292.58 40.35 296.22 40.79 Z" fill="#020202" />
<path d="M 330.95 40.41 C 344.53 40.59 358.11 40.34 371.69 40.56 C 372.07 43.38 372.93 46.94 371.87 49.65 C 370.90 50.92 368.50 50.75 367.05 50.88 C 355.86 50.97 344.61 50.57 333.42 51.06 C 333.48 60.68 333.48 70.31 333.42 79.93 C 341.97 80.32 350.48 80.14 359.04 80.07 C 361.28 80.28 365.15 79.56 366.76 81.44 C 367.51 84.05 367.04 87.13 366.87 89.81 C 355.76 90.64 344.57 89.96 333.44 90.24 C 333.47 101.38 333.46 112.52 333.44 123.66 C 346.38 123.77 359.32 123.53 372.26 123.78 C 372.69 126.81 374.07 131.20 371.62 133.67 C 368.82 134.18 365.84 134.04 363.00 134.05 C 351.32 133.90 339.64 134.10 327.96 134.00 C 325.60 133.81 321.73 133.78 321.34 130.71 C 320.61 126.24 321.07 121.52 321.01 117.00 C 321.02 93.98 321.07 70.95 320.96 47.93 C 321.09 45.99 320.91 42.87 322.64 41.56 C 324.95 40.20 328.35 40.51 330.95 40.41 Z" fill="#020202" />
<path d="M 405.69 40.95 C 405.95 55.05 405.43 69.17 405.96 83.26 C 414.53 73.35 422.36 62.79 430.64 52.64 C 433.80 48.92 436.49 44.42 440.24 41.29 C 443.56 39.06 449.03 40.38 452.72 40.96 C 451.88 43.56 450.94 46.04 449.17 48.16 C 439.16 60.04 429.08 71.88 419.29 83.95 C 427.98 95.81 436.95 107.47 445.76 119.25 C 449.22 124.14 453.26 127.51 454.36 133.70 C 450.79 134.15 446.66 134.82 443.12 134.00 C 440.90 133.39 439.21 130.88 437.85 129.15 C 429.51 117.53 420.88 106.11 412.50 94.51 C 410.48 91.70 408.33 89.00 406.01 86.43 C 405.44 96.60 405.87 106.82 405.74 117.00 C 405.61 122.37 406.27 128.03 405.29 133.32 C 401.85 135.17 397.15 134.12 393.44 133.67 C 393.11 124.11 393.34 114.57 393.28 105.00 C 393.37 83.72 393.12 62.42 393.39 41.15 C 397.50 39.64 401.50 40.05 405.69 40.95 Z" fill="#020202" />
<path d="M 460.54 40.74 C 464.29 40.14 468.22 40.50 472.01 40.46 C 489.02 40.50 506.04 40.50 523.05 40.43 C 524.51 40.61 527.50 40.18 528.18 41.85 C 529.38 44.45 528.44 48.11 528.09 50.85 C 518.74 51.23 509.41 50.91 500.06 51.06 C 499.97 70.37 500.06 89.69 500.03 109.00 C 499.98 117.29 500.24 125.54 499.77 133.83 C 495.75 134.33 491.98 134.34 487.96 133.93 C 487.51 127.96 487.55 121.98 487.61 116.00 C 487.63 94.37 487.58 72.74 487.64 51.12 C 479.11 50.80 470.56 51.29 462.04 50.95 C 459.11 51.18 458.91 48.17 458.82 45.98 C 458.88 44.31 458.91 41.70 460.54 40.74 Z" fill="#020202" />
<path d="M 554.70 40.95 C 554.91 53.90 554.55 66.86 554.89 79.81 C 568.97 79.82 583.06 79.82 597.15 79.81 C 597.48 66.86 597.14 53.91 597.34 40.96 C 601.78 39.93 605.19 39.93 609.63 40.97 C 609.64 71.87 609.83 102.78 609.54 133.68 C 605.29 134.42 601.68 134.42 597.44 133.69 C 597.03 119.39 597.50 105.06 597.19 90.75 C 583.09 90.59 568.95 90.59 554.85 90.75 C 554.67 101.16 554.75 111.58 554.79 121.99 C 554.75 125.69 555.12 129.68 554.27 133.30 C 551.00 135.23 546.04 134.08 542.44 133.67 C 542.13 123.78 542.35 113.90 542.29 104.00 C 542.38 83.06 542.13 62.09 542.40 41.16 C 546.51 39.64 550.51 40.05 554.70 40.95 Z" fill="#020202" />
<path d="M 646.85 40.88 C 647.17 68.24 646.79 95.63 647.03 122.99 C 647.01 126.40 647.31 130.14 646.41 133.45 C 643.02 134.97 638.47 134.17 634.86 133.91 C 634.27 125.91 634.58 118.00 634.53 110.00 C 634.50 90.00 634.57 70.00 634.50 50.00 C 634.50 46.97 634.53 43.97 634.78 40.95 C 638.82 39.79 642.78 40.07 646.85 40.88 Z" fill="#020202" />
<path d="M 684.12 40.82 C 684.37 68.23 684.15 95.65 684.23 123.06 C 693.52 123.36 702.75 123.21 712.04 123.14 C 714.15 123.17 716.39 123.09 718.46 123.57 C 720.50 124.14 720.22 127.33 720.33 128.99 C 720.17 131.38 720.05 134.03 716.94 133.93 C 705.65 134.21 694.31 133.84 683.00 134.06 C 679.95 133.96 675.93 134.37 673.21 132.79 C 671.51 131.02 671.90 127.33 671.75 125.03 C 672.02 97.04 671.54 68.98 671.99 41.00 C 676.04 39.74 680.02 40.07 684.12 40.82 Z" fill="#020202" />
<path d="M 742.95 40.42 C 754.65 40.53 766.36 40.47 778.06 40.43 C 779.57 40.61 781.57 40.17 782.46 41.72 C 783.42 43.95 783.45 47.21 782.65 49.50 C 781.70 51.40 779.84 50.80 778.06 51.06 C 767.51 51.14 756.97 50.86 746.42 51.12 C 746.48 61.68 746.46 72.23 746.43 82.79 C 754.96 82.89 763.48 82.88 772.01 82.78 C 774.53 82.80 777.20 82.69 779.68 83.22 C 781.54 84.11 781.33 87.23 781.30 88.96 C 781.14 91.19 780.60 93.13 777.96 93.05 C 767.47 93.42 756.93 92.96 746.43 93.21 C 746.28 106.76 746.87 120.37 746.11 133.90 C 742.55 134.14 737.92 135.04 734.62 133.42 C 733.46 129.53 734.09 125.02 733.99 121.00 C 734.04 96.65 734.06 72.28 733.96 47.93 C 734.09 45.99 733.91 42.87 735.63 41.56 C 737.66 40.33 740.65 40.50 742.95 40.42 Z" fill="#020202" />
<path d="M 811.95 40.41 C 825.53 40.59 839.11 40.34 852.69 40.56 C 853.07 43.38 853.93 46.94 852.87 49.65 C 851.90 50.92 849.50 50.75 848.05 50.88 C 836.86 50.97 825.61 50.57 814.42 51.06 C 814.47 60.68 814.48 70.31 814.42 79.93 C 822.97 80.32 831.49 80.14 840.04 80.07 C 842.28 80.28 846.15 79.56 847.76 81.44 C 848.51 84.05 848.03 87.13 847.87 89.81 C 836.76 90.64 825.57 89.96 814.44 90.24 C 814.47 101.38 814.46 112.52 814.44 123.66 C 827.38 123.77 840.32 123.53 853.26 123.78 C 853.69 126.81 855.07 131.19 852.62 133.67 C 849.82 134.18 846.85 134.04 844.00 134.05 C 832.32 133.90 820.64 134.10 808.96 134.00 C 806.60 133.81 802.73 133.79 802.34 130.71 C 801.61 126.24 802.07 121.52 802.01 117.00 C 802.02 93.98 802.07 70.95 801.96 47.93 C 802.09 45.99 801.91 42.87 803.64 41.56 C 805.95 40.20 809.35 40.51 811.95 40.41 Z" fill="#020202" />

<path d="M 324.99 141.95 C 328.08 141.93 331.60 142.16 334.41 143.55 C 335.20 146.21 335.17 149.23 335.19 151.99 C 334.97 165.66 335.18 179.33 335.06 193.00 C 335.08 199.68 334.61 207.05 337.89 213.12 C 340.21 217.61 344.54 220.50 349.43 221.51 C 356.01 222.84 363.86 221.77 368.61 216.62 C 373.09 211.67 373.76 205.43 373.80 199.04 C 373.74 186.69 373.76 174.35 373.76 162.00 C 373.65 155.70 373.64 149.42 374.17 143.14 C 380.57 141.70 385.60 141.73 392.01 143.07 C 392.30 146.71 392.53 150.35 392.53 154.01 C 392.40 169.00 392.47 184.00 392.51 199.00 C 392.49 204.62 392.18 210.00 390.41 215.38 C 387.99 222.82 382.86 229.29 375.83 232.84 C 367.32 237.37 357.39 237.94 347.95 237.29 C 338.97 236.62 329.58 233.45 323.71 226.27 C 317.93 219.44 316.18 210.78 316.05 202.04 C 315.99 185.02 316.20 167.99 315.95 150.97 C 316.00 148.63 315.87 145.89 316.78 143.69 C 319.10 142.22 322.31 142.02 324.99 141.95 Z" fill="#dd7628" />
<path d="M 474.73 143.26 C 478.71 144.43 483.84 146.10 486.47 149.49 C 489.08 154.25 487.94 160.21 486.21 165.07 C 479.01 161.93 472.85 158.24 464.91 157.10 C 457.11 155.97 448.45 156.33 441.54 160.53 C 434.85 164.42 430.49 171.21 428.67 178.63 C 427.06 185.43 427.07 192.68 428.52 199.51 C 430.09 206.73 434.06 213.63 440.50 217.51 C 449.03 222.65 459.66 222.99 468.71 218.96 C 468.74 211.71 468.79 204.47 468.66 197.22 C 462.38 196.94 455.69 197.82 449.54 196.51 C 447.05 192.44 448.39 187.55 449.09 183.18 C 458.07 182.53 467.02 183.00 476.00 182.77 C 479.00 182.82 482.52 182.56 485.33 183.70 C 487.74 185.21 487.59 189.46 487.73 191.94 C 487.66 202.32 487.63 212.68 487.74 223.06 C 487.49 226.66 488.08 230.36 484.18 232.13 C 474.93 236.29 464.06 237.53 454.00 237.46 C 443.19 237.43 432.64 234.60 423.90 228.09 C 419.03 224.27 415.14 219.10 412.50 213.52 C 408.35 204.36 407.27 193.97 408.13 184.03 C 409.09 174.31 412.07 164.98 418.32 157.33 C 424.62 149.05 434.82 143.95 444.87 141.96 C 454.69 140.26 465.08 140.84 474.73 143.26 Z" fill="#dd7628" />
<path d="M 547.95 142.16 C 550.13 142.49 553.00 142.55 554.10 144.84 C 556.19 148.69 557.26 153.15 558.75 157.26 C 565.89 177.78 573.05 198.29 580.21 218.80 C 582.22 224.13 583.99 229.49 585.22 235.06 C 579.28 236.60 573.30 237.13 567.26 235.76 C 565.32 235.38 564.88 233.44 564.13 231.88 C 562.13 226.35 560.52 220.67 558.62 215.11 C 546.89 214.45 534.97 214.63 523.23 215.00 C 521.39 220.32 519.84 225.73 518.06 231.07 C 517.34 232.71 516.73 235.32 514.70 235.71 C 509.18 237.20 503.97 236.40 498.52 235.15 C 499.56 229.11 501.57 223.42 503.72 217.71 C 511.77 194.47 519.97 171.15 527.91 147.92 C 528.71 146.14 529.58 143.21 531.76 142.79 C 536.96 141.54 542.65 141.83 547.95 142.16 Z M 540.77 160.93 C 545.53 173.78 549.61 186.92 553.86 199.94 C 545.18 200.10 536.50 200.17 527.82 199.88 C 529.50 193.71 531.58 187.69 533.66 181.65 C 536.02 174.77 538.01 167.65 540.77 160.93 Z" fill="#dd7628" fill-rule="evenodd" />
<path d="M 667.01 142.09 C 668.86 142.26 672.67 142.42 673.52 144.42 C 674.52 149.10 673.88 154.22 673.97 159.00 C 673.97 181.35 673.89 203.71 674.04 226.05 C 673.85 229.29 674.08 233.94 670.36 235.30 C 665.59 236.71 660.07 236.45 655.19 235.72 C 650.50 234.93 648.18 230.76 646.00 227.00 C 637.97 211.72 629.83 196.51 621.72 181.28 C 618.77 175.72 616.40 169.91 613.52 164.32 C 613.46 172.89 614.10 181.43 613.99 190.00 C 613.86 205.01 614.15 220.02 613.87 235.03 C 607.55 236.81 603.28 236.81 596.94 235.15 C 596.63 208.10 597.02 181.04 596.74 153.99 C 596.81 151.31 596.68 148.21 597.70 145.69 C 598.81 143.26 601.57 142.91 603.93 142.61 C 608.83 142.24 613.96 142.20 618.79 143.22 C 623.10 144.10 625.21 148.37 627.18 151.85 C 633.87 164.77 640.87 177.51 647.59 190.42 C 650.81 196.58 653.62 202.94 656.86 209.09 C 656.99 193.40 656.71 177.70 656.82 162.00 C 656.97 156.17 656.23 150.04 657.26 144.30 C 659.33 141.86 664.10 142.07 667.01 142.09 Z" fill="#dd7628" />
<path d="M 697.29 143.22 C 700.98 142.17 705.19 142.51 709.00 142.47 C 718.38 142.68 728.22 142.10 737.48 143.54 C 747.01 145.20 756.69 149.46 762.71 157.30 C 768.36 164.17 770.75 172.45 771.71 181.15 C 772.61 190.45 771.80 200.02 768.95 208.94 C 765.76 218.89 758.30 227.65 748.45 231.48 C 736.95 236.48 725.26 235.91 713.00 236.02 C 708.14 235.95 703.06 236.44 698.27 235.62 C 696.02 235.16 694.90 233.96 694.51 231.72 C 693.79 226.90 694.26 221.86 694.20 217.00 C 694.22 199.00 694.21 181.00 694.21 163.00 C 694.25 158.05 693.90 153.03 694.34 148.10 C 694.60 146.00 695.01 143.94 697.29 143.22 Z M 713.49 157.55 C 718.92 156.94 724.54 157.31 729.96 157.98 C 736.55 158.78 742.70 161.93 746.62 167.39 C 752.23 175.03 752.79 185.90 751.97 194.99 C 751.16 203.34 748.12 212.03 740.69 216.68 C 732.70 221.75 722.27 221.05 713.21 220.89 C 713.06 202.25 713.30 183.62 713.10 164.98 C 713.10 162.53 713.09 159.98 713.49 157.55 Z" fill="#dd7628" fill-rule="evenodd"/>
<path d="M 820.03 141.91 C 823.19 142.11 827.54 141.84 830.25 143.69 C 832.55 146.62 833.48 150.81 834.75 154.29 C 841.97 175.33 849.39 196.30 856.68 217.32 C 858.83 223.15 860.90 228.97 862.22 235.06 C 856.27 236.60 850.30 237.13 844.26 235.76 C 842.31 235.38 841.88 233.45 841.13 231.88 C 839.13 226.35 837.52 220.68 835.61 215.11 C 823.89 214.45 811.96 214.63 800.23 215.00 C 798.38 220.32 796.84 225.73 795.06 231.07 C 794.34 232.70 793.71 235.32 791.70 235.71 C 786.19 237.20 780.97 236.41 775.52 235.15 C 776.55 229.11 778.57 223.42 780.71 217.71 C 788.00 196.68 795.38 175.68 802.60 154.62 C 803.95 150.97 804.88 146.38 807.43 143.38 C 811.10 141.60 816.03 142.00 820.03 141.91 Z M 817.77 160.93 C 820.34 167.29 822.29 174.01 824.47 180.53 C 826.63 186.99 828.86 193.43 830.86 199.94 C 822.18 200.10 813.50 200.17 804.81 199.88 C 806.49 193.71 808.58 187.69 810.65 181.64 C 813.02 174.76 815.00 167.65 817.77 160.93 Z" fill="#dd7628" fill-rule="evenodd"/>

<path d="M 1015.00 9.99 C 1022.13 10.12 1028.64 9.35 1035.63 11.17 C 1044.98 12.76 1053.95 14.35 1062.70 18.23 C 1076.79 23.72 1090.11 30.43 1101.60 40.40 C 1108.85 46.91 1115.68 53.78 1121.09 61.94 C 1131.18 75.38 1137.88 90.82 1142.04 107.05 C 1143.52 112.53 1144.15 118.14 1145.26 123.69 C 1146.45 129.53 1145.91 135.99 1146.03 142.00 C 1145.99 146.64 1146.41 151.60 1145.08 156.05 C 1141.32 168.97 1139.63 181.36 1133.76 193.73 C 1125.62 212.06 1112.32 227.29 1096.91 239.90 C 1080.15 252.58 1059.99 260.94 1039.34 264.56 C 1030.65 267.03 1021.33 265.67 1012.00 266.04 C 1006.13 266.32 1000.55 265.45 994.82 264.32 C 986.02 263.17 978.54 259.70 970.32 256.72 C 957.66 252.48 945.78 244.86 935.31 236.68 C 927.55 229.57 919.52 221.78 914.48 212.49 C 907.84 201.66 900.85 190.14 897.04 177.94 C 895.26 172.52 893.23 167.40 892.32 161.74 C 891.51 155.72 889.71 150.16 889.96 144.02 C 890.24 134.83 889.06 126.62 891.53 117.71 C 895.24 97.14 902.58 76.33 916.00 60.01 C 920.22 53.92 925.49 48.91 930.72 43.72 C 935.84 38.58 942.46 34.57 948.47 30.48 C 959.35 23.32 971.20 18.83 983.35 14.35 C 987.84 12.79 992.41 12.02 997.02 10.94 C 1002.73 9.47 1009.04 10.08 1015.00 9.99 Z" fill="#020202" />
<path d="M 1018.24 13.21 C 1020.15 12.95 1022.07 12.92 1023.99 12.93 C 1038.76 13.34 1053.35 16.12 1066.92 22.08 C 1076.53 26.23 1085.88 31.60 1094.22 37.94 C 1094.05 38.80 1093.87 39.65 1093.69 40.51 C 1087.53 42.22 1081.35 43.87 1075.22 45.68 C 1069.42 40.31 1064.27 34.85 1057.60 30.39 C 1052.37 26.81 1046.84 23.77 1041.33 20.64 C 1038.65 19.12 1035.73 18.33 1032.73 17.72 C 1037.21 21.10 1042.18 23.35 1047.11 25.94 C 1054.57 29.81 1060.89 36.16 1067.20 41.78 C 1068.42 43.18 1070.57 44.52 1069.88 46.64 C 1062.77 49.12 1054.68 49.53 1047.28 50.73 C 1053.06 52.15 1059.85 50.61 1065.62 49.55 C 1068.09 49.18 1071.12 47.81 1073.57 48.35 C 1076.02 50.11 1077.90 52.89 1079.84 55.18 C 1083.09 59.04 1085.89 63.22 1088.44 67.56 C 1091.05 71.68 1092.39 75.84 1096.57 78.75 C 1094.12 72.03 1090.11 65.76 1086.19 59.81 C 1083.16 55.07 1079.07 52.24 1077.49 46.59 C 1084.45 45.10 1091.13 42.97 1097.87 40.71 C 1108.76 50.84 1120.20 61.57 1126.00 75.59 C 1127.64 78.99 1130.19 81.84 1131.69 85.34 C 1134.99 92.79 1137.58 100.62 1139.53 108.54 C 1141.53 116.11 1142.11 124.23 1142.87 132.02 C 1142.99 138.01 1142.44 144.05 1142.14 150.04 C 1141.56 163.03 1137.67 174.99 1133.00 187.01 C 1131.10 191.89 1128.86 196.62 1126.08 201.07 C 1114.94 219.62 1099.85 235.52 1081.04 246.39 C 1077.55 244.36 1073.95 242.54 1070.48 240.50 C 1069.21 239.48 1067.66 239.11 1068.07 237.15 C 1070.72 232.26 1075.59 228.42 1079.13 224.14 C 1082.49 220.08 1086.79 215.74 1088.41 210.70 C 1084.18 214.17 1081.61 218.56 1077.87 222.87 C 1073.69 228.17 1068.84 232.73 1063.95 237.36 C 1058.01 235.17 1052.22 233.05 1045.91 232.11 C 1042.56 231.70 1039.48 230.51 1036.38 229.23 C 1038.47 220.71 1041.51 212.00 1041.93 203.21 C 1039.68 206.07 1039.58 209.19 1038.64 212.59 C 1037.45 218.49 1035.66 224.22 1033.82 229.94 C 1028.17 230.08 1022.18 229.53 1016.64 230.68 C 1010.23 232.19 1003.78 232.97 997.57 235.27 C 999.54 243.21 1005.04 249.20 1007.13 257.06 C 1002.03 251.37 998.72 243.67 995.59 236.77 C 989.41 237.53 983.62 239.26 978.35 242.63 C 981.19 245.82 984.11 248.89 987.60 251.40 C 990.73 253.64 993.64 256.08 996.09 259.07 C 989.03 255.64 982.84 251.28 977.25 245.78 C 974.10 242.09 967.83 244.59 963.92 245.65 C 966.46 244.19 969.05 242.84 971.62 241.45 C 968.75 236.17 964.05 233.20 960.45 228.56 C 957.24 224.45 954.08 220.18 951.64 215.56 C 956.23 218.87 958.86 223.26 962.54 227.45 C 966.39 232.35 971.52 235.77 975.96 240.22 C 982.06 237.93 988.18 236.48 993.89 233.21 C 992.67 229.33 991.60 225.40 990.40 221.51 C 989.04 217.57 987.47 213.80 986.96 209.62 C 989.97 213.31 991.25 218.78 992.72 223.24 C 993.73 226.60 995.28 229.70 996.87 232.82 C 1004.53 230.98 1012.36 229.97 1019.98 228.03 C 1020.04 218.69 1019.96 209.36 1020.03 200.03 C 1033.03 200.16 1046.22 199.44 1059.15 200.79 C 1066.40 201.39 1072.84 200.25 1079.72 202.15 C 1085.74 203.29 1091.75 204.67 1097.85 205.24 C 1104.30 205.94 1110.00 208.80 1116.52 209.07 C 1111.22 204.33 1102.36 203.59 1095.67 201.60 C 1097.38 194.15 1101.19 187.94 1103.74 180.73 C 1107.99 170.17 1109.12 159.16 1109.15 147.87 C 1118.77 146.22 1130.86 146.80 1139.67 142.24 C 1131.11 141.12 1123.46 144.43 1114.95 144.08 C 1113.16 143.89 1111.44 144.31 1110.25 142.66 C 1109.69 138.26 1110.23 133.78 1109.63 129.36 C 1108.96 124.29 1108.26 119.23 1107.76 114.15 C 1106.41 105.29 1103.64 96.42 1100.75 87.99 C 1107.39 85.67 1114.16 85.18 1120.26 82.25 C 1122.21 81.34 1123.44 79.85 1124.90 78.33 C 1120.58 79.48 1116.45 81.12 1112.08 82.09 C 1101.22 84.58 1091.20 87.99 1080.00 89.01 C 1074.27 89.50 1068.79 90.95 1063.01 91.00 C 1058.65 91.05 1054.36 91.62 1050.04 92.07 C 1039.50 93.46 1028.59 92.92 1017.96 92.94 C 1017.50 81.63 1017.91 70.28 1017.82 58.97 C 1017.65 57.15 1017.95 54.72 1015.70 54.15 C 1010.99 52.83 1005.78 52.85 1000.93 52.94 C 998.60 53.08 995.74 53.08 994.44 55.40 C 991.74 60.19 989.79 65.42 987.31 70.34 C 984.39 76.00 983.73 82.10 980.13 87.46 C 979.57 75.57 987.96 64.18 991.40 53.27 C 980.26 50.52 969.56 50.27 958.26 48.90 C 949.46 59.93 942.76 72.15 936.84 84.91 C 936.81 75.60 941.97 69.81 945.97 61.97 C 948.53 56.99 951.99 52.71 955.56 48.44 C 951.47 46.00 946.72 45.78 942.67 43.22 C 947.94 43.49 953.42 44.57 958.68 44.18 C 961.41 43.51 963.63 40.49 965.64 38.64 C 968.95 35.19 972.58 32.15 976.73 29.77 C 983.76 25.70 990.75 20.94 998.32 17.94 C 994.47 22.70 989.42 25.07 984.26 28.22 C 977.07 32.07 970.60 37.14 965.25 43.30 C 964.29 44.40 963.95 45.32 963.82 46.77 C 965.11 47.67 966.46 47.87 967.99 47.96 C 976.31 48.32 984.61 49.31 992.90 50.16 C 995.16 44.70 997.03 39.32 1000.40 34.40 C 1004.15 28.98 1006.82 23.33 1011.19 18.70 C 1010.45 23.89 1007.68 27.69 1005.05 32.06 C 1001.44 37.75 998.21 43.54 996.56 50.13 C 1003.36 51.33 1010.30 51.26 1017.15 52.13 C 1018.60 39.25 1017.15 26.14 1018.24 13.21 Z" fill="#fffefe" />
<path d="M 1023.78 21.77 C 1027.81 26.11 1029.60 31.30 1032.43 36.58 C 1034.85 41.11 1036.37 45.94 1038.01 50.78 C 1041.32 50.95 1044.62 51.17 1047.89 51.77 C 1044.73 52.70 1041.51 53.21 1038.29 53.82 C 1040.28 60.42 1041.66 67.23 1043.13 73.97 C 1043.92 77.48 1043.71 80.05 1042.68 83.46 C 1040.80 76.35 1040.06 69.04 1038.15 61.94 C 1037.40 59.13 1036.77 55.42 1034.66 53.29 C 1029.83 52.85 1025.15 53.88 1020.31 52.63 C 1025.24 52.15 1030.17 51.99 1035.08 51.31 C 1032.95 44.28 1030.78 37.08 1027.44 30.52 C 1026.01 27.67 1024.55 24.89 1023.78 21.77 Z" fill="#020202" />
<path d="M 904.50 84.19 C 913.48 85.15 922.59 86.16 931.30 88.64 C 941.74 91.23 952.19 93.22 962.99 93.15 C 970.63 94.04 978.25 93.95 985.91 94.39 C 995.84 95.48 1005.91 94.82 1015.98 95.03 C 1015.80 102.36 1016.38 109.74 1015.93 117.05 C 1015.14 120.90 1014.10 124.16 1014.58 128.18 C 1011.20 125.60 1007.72 123.22 1003.82 121.47 C 1005.17 125.72 1007.42 129.26 1010.16 132.74 C 1005.87 131.40 1001.85 129.79 997.46 128.87 C 999.42 131.55 1001.54 133.92 1004.57 135.42 C 1008.46 137.44 1012.67 137.63 1016.94 138.18 C 1016.99 144.96 1017.21 151.58 1016.73 158.35 C 1013.90 154.68 1011.48 150.74 1009.14 146.74 C 1005.89 147.60 1003.06 147.05 999.89 146.13 C 996.49 145.08 993.10 145.06 989.58 145.27 C 993.21 147.77 996.74 150.20 999.52 153.69 C 995.88 155.31 992.18 156.74 988.67 158.66 C 997.28 159.02 1005.63 159.47 1013.45 163.57 C 1015.37 164.70 1017.99 166.56 1017.92 169.05 C 1018.25 173.77 1017.95 178.54 1018.00 183.28 C 1016.06 183.70 1013.98 184.49 1012.01 183.95 C 1005.77 182.47 1000.64 178.98 994.43 176.59 C 991.41 175.21 986.93 173.86 985.49 170.58 C 983.61 166.31 983.07 161.72 980.34 157.62 C 977.99 154.03 974.14 152.42 971.28 149.48 C 970.94 148.52 970.84 147.48 970.98 146.35 C 974.43 143.09 978.56 141.31 980.65 136.67 C 982.79 131.80 982.00 125.53 980.43 120.59 C 978.89 115.21 974.22 110.59 968.80 109.19 C 965.42 108.65 961.35 108.61 958.26 110.28 C 953.66 112.72 949.99 116.93 949.18 122.20 C 948.56 126.65 949.12 131.30 950.44 135.57 C 951.98 139.85 955.16 142.20 958.35 145.17 C 956.58 148.00 954.94 149.48 952.08 151.17 C 948.81 152.99 947.18 156.78 946.34 160.25 C 944.83 169.35 944.62 178.70 945.24 187.89 C 945.84 192.40 946.17 196.83 945.72 201.38 C 943.76 198.42 942.24 195.27 941.02 191.93 C 937.58 182.67 933.93 173.63 931.85 163.93 C 930.30 158.93 930.06 153.61 928.36 148.69 C 918.94 146.53 909.16 147.64 899.61 144.16 C 906.81 143.68 913.82 145.48 921.05 145.11 C 923.05 144.88 926.53 145.59 927.77 143.66 C 928.35 137.73 927.71 131.77 928.67 125.84 C 928.95 118.74 931.16 112.14 932.20 105.17 C 932.92 100.49 934.33 96.00 935.31 91.39 C 929.59 90.93 924.08 89.54 918.46 88.47 C 913.53 87.39 908.89 86.93 904.50 84.19 Z" fill="#fffefe" />
<path d="M 1075.54 108.49 C 1080.22 110.13 1084.42 114.43 1085.74 119.24 C 1086.50 123.66 1086.05 128.43 1084.65 132.69 C 1083.21 136.35 1079.63 139.43 1076.77 142.01 C 1076.87 143.29 1076.96 144.57 1077.06 145.85 C 1080.39 148.08 1084.31 150.00 1087.11 152.89 C 1088.98 155.76 1089.62 159.63 1090.04 162.98 C 1090.78 169.87 1092.02 176.23 1092.02 182.99 C 1092.06 189.02 1091.98 195.04 1091.96 201.07 C 1082.83 201.37 1074.10 198.70 1064.99 198.98 C 1059.75 199.09 1054.68 198.20 1049.51 197.59 C 1049.10 194.83 1048.78 192.06 1048.38 189.29 C 1044.01 189.88 1039.64 190.28 1035.33 191.27 C 1029.68 192.61 1024.53 191.25 1018.80 191.73 C 1018.73 189.66 1018.61 187.46 1018.92 185.41 C 1022.20 184.43 1025.63 183.95 1028.93 182.98 C 1037.10 181.02 1045.01 176.91 1051.06 171.06 C 1053.57 166.93 1053.90 161.57 1056.29 157.27 C 1058.42 153.15 1061.96 151.11 1065.15 148.02 C 1066.36 147.03 1066.26 144.85 1065.60 143.58 C 1063.00 140.63 1059.34 139.43 1057.20 135.83 C 1055.32 132.57 1053.39 128.27 1054.38 124.45 C 1055.33 119.99 1056.76 114.44 1060.26 111.27 C 1064.41 107.49 1070.34 107.28 1075.54 108.49 Z" fill="#fffefe" />
<path d="M 1020.46 121.11 C 1019.82 123.58 1019.24 126.01 1019.14 128.57 C 1022.55 125.88 1025.79 123.15 1029.85 121.44 C 1028.64 126.82 1025.29 130.31 1021.81 134.30 C 1027.18 133.38 1031.66 130.78 1036.72 128.97 C 1032.75 135.51 1024.43 138.24 1017.12 138.14 C 1016.99 132.92 1016.76 127.61 1017.26 122.41 C 1018.32 121.95 1019.38 121.52 1020.46 121.11 Z" fill="#fffefe" />
<path d="M 894.26 142.25 C 894.77 142.77 894.77 142.77 894.26 142.25 Z" fill="#fffefe" />
<path d="M 1044.43 145.14 C 1041.45 147.85 1038.30 150.36 1035.36 153.11 C 1038.96 154.16 1042.44 155.50 1045.65 157.47 C 1040.96 158.00 1036.03 157.50 1031.43 158.48 C 1026.65 160.12 1022.32 163.20 1017.70 165.29 C 1018.44 159.52 1021.38 155.13 1024.37 150.31 C 1025.15 149.26 1025.98 147.61 1027.34 147.29 C 1032.96 145.70 1038.55 144.64 1044.43 145.14 Z" fill="#fffefe" />
<path d="M 988.24 191.98 C 993.24 192.03 997.90 193.96 1002.95 194.07 C 1008.10 194.43 1012.83 192.80 1017.91 192.73 C 1018.01 194.56 1018.09 196.40 1018.17 198.23 C 1011.37 199.55 1004.55 198.51 997.77 199.66 C 989.26 200.86 980.86 202.57 972.29 203.37 C 963.12 204.78 953.94 206.09 944.80 207.71 C 939.12 208.61 933.43 209.95 928.07 212.07 C 925.63 213.03 923.24 213.65 920.63 214.04 C 923.20 211.84 926.00 210.22 929.26 209.26 C 940.14 205.97 951.38 203.80 962.67 202.54 C 970.66 201.21 978.63 200.63 986.53 198.67 C 986.98 196.39 987.32 194.12 988.24 191.98 Z" fill="#fffefe" />
<path d="M 986.09 207.16 L 986.91 207.16 L 987.32 207.88 L 986.91 208.59 L 986.09 208.59 L 985.68 207.88 L 986.09 207.16 Z" fill="#fffefe" />
<path d="M 950.25 214.25 C 950.77 214.77 950.77 214.77 950.25 214.25 Z" fill="#fffefe" />
<path d="M 1020.34 231.34 C 1024.82 230.46 1028.98 231.17 1033.37 232.11 C 1031.77 237.04 1029.80 241.85 1027.38 246.44 C 1025.88 249.28 1024.54 252.16 1023.69 255.28 C 1025.73 253.33 1027.55 251.28 1028.64 248.64 C 1031.11 242.99 1033.16 237.23 1036.04 231.76 C 1044.03 233.49 1052.83 234.40 1060.25 237.91 C 1061.66 238.28 1060.76 240.26 1059.86 240.79 C 1056.20 243.77 1052.04 246.53 1047.96 248.92 C 1043.38 251.61 1038.40 252.45 1035.37 257.01 C 1045.54 254.37 1053.99 246.21 1062.90 240.86 C 1064.21 240.13 1065.06 239.77 1066.52 240.40 C 1070.82 242.04 1074.81 244.68 1078.65 247.18 C 1072.69 251.42 1066.03 253.93 1059.14 256.20 C 1051.70 258.99 1044.04 260.73 1036.24 262.24 C 1030.79 263.35 1025.57 263.00 1020.03 262.98 C 1020.22 252.47 1019.51 241.80 1020.34 231.34 Z" fill="#fffefe" />
</svg>
